<?xml version="1.0" encoding="UTF-8" standalone="no"?>
<!-- Created with Inkscape (http://www.inkscape.org/) -->
<svg
   xmlns:svg="http://www.w3.org/2000/svg"
   xmlns="http://www.w3.org/2000/svg"
   version="1.0"
   width="375.879"
   height="251.559"
   id="svg3670">
  <defs
     id="defs3672" />
  <path
     d="M 24.031,78.611 L 24.031,21.285 L 112.672,21.285 L 201.313,21.285 L 201.313,78.611 L 201.313,135.938 L 112.672,135.938 L 24.031,135.938 L 24.031,78.611 z M 202.323,78.611 L 202.323,21.285 L 288.691,21.285 L 375.059,21.285 L 375.059,78.611 L 375.059,135.938 L 288.691,135.938 L 202.323,135.938 L 202.323,78.611 z M 24.031,193.516 L 24.031,136.443 L 112.672,136.443 L 201.313,136.443 L 201.313,193.516 L 201.313,250.59 L 112.672,250.59 L 24.031,250.59 L 24.031,193.516 z M 202.323,193.516 L 202.323,136.443 L 288.691,136.443 L 375.059,136.443 L 375.059,193.516 L 375.059,250.59 L 288.691,250.59 L 202.323,250.59 L 202.323,193.516 z"
     id="path3904"
     style="fill:#f9f9f9;fill-opacity:1;fill-rule:evenodd;stroke:none;stroke-width:3;stroke-linecap:square;stroke-linejoin:miter;marker:none;marker-start:none;marker-mid:none;marker-end:none;stroke-miterlimit:4;stroke-dasharray:none;stroke-dashoffset:0;stroke-opacity:1;visibility:visible;display:inline;overflow:visible;enable-background:accumulate" />
  <path
     d="M 0.823,78.611 L 0.823,21.285 L 11.935,21.285 L 23.046,21.285 L 23.046,78.611 L 23.046,135.938 L 11.935,135.938 L 0.823,135.938 L 0.823,78.611 z M 0.823,193.516 L 0.823,136.443 L 11.935,136.443 L 23.046,136.443 L 23.046,193.516 L 23.046,250.59 L 11.935,250.59 L 0.823,250.59 L 0.823,193.516 z"
     id="path3899"
     style="fill:#d5e5ff;fill-opacity:1;fill-rule:evenodd;stroke:none;stroke-width:3;stroke-linecap:square;stroke-linejoin:miter;marker:none;marker-start:none;marker-mid:none;marker-end:none;stroke-miterlimit:4;stroke-dasharray:none;stroke-dashoffset:0;stroke-opacity:1;visibility:visible;display:inline;overflow:visible;enable-background:accumulate" />
  <path
     d="M 202.286,10.774 L 202.286,0.925 L 288.654,0.925 L 375.022,0.925 L 375.022,10.774 L 375.022,20.623 L 288.654,20.623 L 202.286,20.623 L 202.286,10.774 z M 24.002,10.774 L 24.002,0.925 L 112.77,0.925 L 201.537,0.925 L 201.537,10.774 L 201.537,20.623 L 112.77,20.623 L 24.002,20.623 L 24.002,10.774 z"
     id="path3896"
     style="fill:#fff6d5;fill-opacity:1;fill-rule:evenodd;stroke:none;stroke-width:3;stroke-linecap:square;stroke-linejoin:miter;marker:none;marker-start:none;marker-mid:none;marker-end:none;stroke-miterlimit:4;stroke-dasharray:none;stroke-dashoffset:0;stroke-opacity:1;visibility:visible;display:inline;overflow:visible;enable-background:accumulate" />
  <path
     d="M 39.396,80.575 L 186.164,80.575"
     id="path2488"
     style="fill:none;stroke:#000000;stroke-width:0.59;stroke-linecap:butt;stroke-linejoin:miter;stroke-miterlimit:10;stroke-dasharray:none;stroke-opacity:1" />
  <path
     d="M 176.715,82.149 L 184.589,80.575 L 176.715,79 L 178.29,80.575 L 176.715,82.149"
     id="path2490"
     style="fill:#000000;fill-opacity:1;fill-rule:evenodd;stroke:none" />
  <path
     d="M 176.715,82.149 L 184.589,80.575 L 176.715,79 L 178.29,80.575 L 176.715,82.149 z"
     id="path2492"
     style="fill:none;stroke:#000000;stroke-width:0.59;stroke-linecap:butt;stroke-linejoin:miter;stroke-miterlimit:10;stroke-dasharray:none;stroke-opacity:1" />
  <path
     d="M 50.026,117.424 L 50.026,29.552"
     id="path2502"
     style="fill:none;stroke:#000000;stroke-width:0.59;stroke-linecap:butt;stroke-linejoin:miter;stroke-miterlimit:10;stroke-dasharray:none;stroke-opacity:1" />
  <path
     d="M 51.601,39.001 L 50.026,31.127 L 48.451,39.001 L 50.026,37.426 L 51.601,39.001"
     id="path2504"
     style="fill:#000000;fill-opacity:1;fill-rule:evenodd;stroke:none" />
  <path
     d="M 51.601,39.001 L 50.026,31.127 L 48.451,39.001 L 50.026,37.426 L 51.601,39.001 z"
     id="path2506"
     style="fill:none;stroke:#000000;stroke-width:0.59;stroke-linecap:butt;stroke-linejoin:miter;stroke-miterlimit:10;stroke-dasharray:none;stroke-opacity:1" />
  <path
     d="M 50.026,80.575 C 71.971,44.349 82.199,41.453 105.142,79.709 C 128.575,118.838 138.495,118.302 161.361,80.575"
     id="path2508"
     style="fill:none;stroke:#ff0000;stroke-width:1.18125;stroke-linecap:butt;stroke-linejoin:miter;stroke-miterlimit:10;stroke-dasharray:none;stroke-opacity:1" />
  <path
     d="M 217.761,81.2 L 359.489,81.2"
     id="path2520"
     style="fill:none;stroke:#000000;stroke-width:0.59;stroke-linecap:butt;stroke-linejoin:miter;stroke-miterlimit:10;stroke-dasharray:none;stroke-opacity:1" />
  <path
     d="M 350.041,82.774 L 357.915,81.2 L 350.041,79.625 L 351.615,81.2 L 350.041,82.774"
     id="path2522"
     style="fill:#000000;fill-opacity:1;fill-rule:evenodd;stroke:none" />
  <path
     d="M 350.041,82.774 L 357.915,81.2 L 350.041,79.625 L 351.615,81.2 L 350.041,82.774 z"
     id="path2524"
     style="fill:none;stroke:#000000;stroke-width:0.59;stroke-linecap:butt;stroke-linejoin:miter;stroke-miterlimit:10;stroke-dasharray:none;stroke-opacity:1" />
  <path
     d="M 228.391,117.419 L 228.391,30.256"
     id="path2534"
     style="fill:none;stroke:#000000;stroke-width:0.59;stroke-linecap:butt;stroke-linejoin:miter;stroke-miterlimit:10;stroke-dasharray:none;stroke-opacity:1" />
  <path
     d="M 229.966,39.705 L 228.391,31.831 L 226.816,39.705 L 228.391,38.13 L 229.966,39.705"
     id="path2536"
     style="fill:#000000;fill-opacity:1;fill-rule:evenodd;stroke:none" />
  <path
     d="M 229.966,39.705 L 228.391,31.831 L 226.816,39.705 L 228.391,38.13 L 229.966,39.705 z"
     id="path2538"
     style="fill:none;stroke:#000000;stroke-width:0.59;stroke-linecap:butt;stroke-linejoin:miter;stroke-miterlimit:10;stroke-dasharray:none;stroke-opacity:1" />
  <path
     d="M 230.911,81.2 C 230.911,82.591 229.782,83.718 228.391,83.718 C 227,83.718 225.871,82.591 225.871,81.2 C 225.871,79.807 227,78.68 228.391,78.68 C 229.782,78.68 230.911,79.807 230.911,81.2 M 239.73,67.577 C 239.73,68.97 238.601,70.097 237.21,70.097 C 235.819,70.097 234.69,68.97 234.69,67.577 C 234.69,66.186 235.819,65.058 237.21,65.058 C 238.601,65.058 239.73,66.186 239.73,67.577 M 248.626,57.342 C 248.626,58.734 247.499,59.861 246.107,59.861 C 244.716,59.861 243.587,58.734 243.587,57.342 C 243.587,55.95 244.716,54.822 246.107,54.822 C 247.499,54.822 248.626,55.95 248.626,57.342 M 257.524,52.932 C 257.524,54.324 256.396,55.452 255.005,55.452 C 253.612,55.452 252.485,54.324 252.485,52.932 C 252.485,51.541 253.612,50.413 255.005,50.413 C 256.396,50.413 257.524,51.541 257.524,52.932 M 266.342,55.452 C 266.342,56.843 265.215,57.971 263.822,57.971 C 262.431,57.971 261.304,56.843 261.304,55.452 C 261.304,54.061 262.431,52.932 263.822,52.932 C 265.215,52.932 266.342,54.061 266.342,55.452 M 275.161,64.271 C 275.161,65.662 274.034,66.79 272.641,66.79 C 271.25,66.79 270.122,65.662 270.122,64.271 C 270.122,62.88 271.25,61.751 272.641,61.751 C 274.034,61.751 275.161,62.88 275.161,64.271 M 284.059,77.184 C 284.059,78.575 282.93,79.704 281.539,79.704 C 280.147,79.704 279.02,78.575 279.02,77.184 C 279.02,75.792 280.147,74.663 281.539,74.663 C 282.93,74.663 284.059,75.792 284.059,77.184 M 292.956,91.12 C 292.956,92.512 291.827,93.64 290.436,93.64 C 289.045,93.64 287.916,92.512 287.916,91.12 C 287.916,89.728 289.045,88.601 290.436,88.601 C 291.827,88.601 292.956,89.728 292.956,91.12 M 301.775,102.616 C 301.775,104.007 300.646,105.135 299.255,105.135 C 297.864,105.135 296.735,104.007 296.735,102.616 C 296.735,101.225 297.864,100.096 299.255,100.096 C 300.646,100.096 301.775,101.225 301.775,102.616 M 310.594,108.915 C 310.594,110.306 309.465,111.435 308.074,111.435 C 306.682,111.435 305.554,110.306 305.554,108.915 C 305.554,107.524 306.682,106.395 308.074,106.395 C 309.465,106.395 310.594,107.524 310.594,108.915 M 319.49,108.364 C 319.49,109.755 318.362,110.883 316.971,110.883 C 315.579,110.883 314.451,109.755 314.451,108.364 C 314.451,106.972 315.579,105.844 316.971,105.844 C 318.362,105.844 319.49,106.972 319.49,108.364 M 328.387,101.199 C 328.387,102.59 327.26,103.718 325.869,103.718 C 324.476,103.718 323.349,102.59 323.349,101.199 C 323.349,99.807 324.476,98.678 325.869,98.678 C 327.26,98.678 328.387,99.807 328.387,101.199 M 337.206,89.152 C 337.206,90.544 336.079,91.671 334.687,91.671 C 333.295,91.671 332.167,90.544 332.167,89.152 C 332.167,87.76 333.295,86.632 334.687,86.632 C 336.079,86.632 337.206,87.76 337.206,89.152"
     id="path2540"
     style="fill:#ff0000;fill-opacity:1;fill-rule:evenodd;stroke:none" />
  <path
     d="M 228.391,81.2 L 228.391,81.2 z M 237.21,81.2 L 237.21,67.577 M 246.107,81.2 L 246.107,57.342 M 255.005,81.2 L 255.005,52.932 M 263.822,81.2 L 263.822,55.452 M 272.641,81.2 L 272.641,64.271 M 281.539,81.2 L 281.539,77.184 M 290.436,81.2 L 290.436,91.12 M 299.255,81.2 L 299.255,102.616 M 308.074,81.2 L 308.074,108.915 M 316.971,81.2 L 316.971,108.364 M 325.869,81.2 L 325.869,101.199 M 334.687,81.2 L 334.687,89.152"
     id="path2566"
     style="fill:none;stroke:#ff0000;stroke-width:1.18125;stroke-linecap:butt;stroke-linejoin:miter;stroke-miterlimit:10;stroke-dasharray:none;stroke-opacity:1" />
  <path
     d="M 39.396,195.706 L 186.164,195.706"
     id="path2590"
     style="fill:none;stroke:#000000;stroke-width:0.59;stroke-linecap:butt;stroke-linejoin:miter;stroke-miterlimit:10;stroke-dasharray:none;stroke-opacity:1" />
  <path
     d="M 176.715,197.28 L 184.589,195.706 L 176.715,194.131 L 178.29,195.706 L 176.715,197.28"
     id="path2592"
     style="fill:#000000;fill-opacity:1;fill-rule:evenodd;stroke:none" />
  <path
     d="M 176.715,197.28 L 184.589,195.706 L 176.715,194.131 L 178.29,195.706 L 176.715,197.28 z"
     id="path2594"
     style="fill:none;stroke:#000000;stroke-width:0.59;stroke-linecap:butt;stroke-linejoin:miter;stroke-miterlimit:10;stroke-dasharray:none;stroke-opacity:1" />
  <path
     d="M 50.026,232.555 L 50.026,144.683"
     id="path2604"
     style="fill:none;stroke:#000000;stroke-width:0.59;stroke-linecap:butt;stroke-linejoin:miter;stroke-miterlimit:10;stroke-dasharray:none;stroke-opacity:1" />
  <path
     d="M 51.601,154.132 L 50.026,146.258 L 48.451,154.132 L 50.026,152.557 L 51.601,154.132"
     id="path2606"
     style="fill:#000000;fill-opacity:1;fill-rule:evenodd;stroke:none" />
  <path
     d="M 51.601,154.132 L 50.026,146.258 L 48.451,154.132 L 50.026,152.557 L 51.601,154.132 z M 50.026,199.248 L 50.026,192.162"
     id="path2608"
     style="fill:none;stroke:#000000;stroke-width:0.59;stroke-linecap:butt;stroke-linejoin:miter;stroke-miterlimit:10;stroke-dasharray:none;stroke-opacity:1" />
  <path
     d="M 50.026,195.706 L 54.514,195.706 L 54.671,181.532 L 64.986,181.532 L 65.222,167.36 L 90.655,167.36 L 90.812,181.532 L 101.126,181.532 L 101.362,195.706 L 110.024,195.706 L 110.26,209.879 L 120.496,209.879 L 120.732,224.051 L 146.165,224.051 L 146.401,209.879 L 156.636,209.879 L 156.872,195.706 L 161.361,195.706"
     id="path2610"
     style="fill:none;stroke:#ff0000;stroke-width:1.18125;stroke-linecap:butt;stroke-linejoin:miter;stroke-miterlimit:10;stroke-dasharray:none;stroke-opacity:1" />
  <path
     d="M 46.482,167.36 L 53.57,167.36 M 46.482,181.532 L 53.57,181.532 M 46.482,209.879 L 53.57,209.879 M 46.482,224.051 L 53.57,224.051"
     id="path2612"
     style="fill:none;stroke:#000000;stroke-width:0.59;stroke-linecap:butt;stroke-linejoin:miter;stroke-miterlimit:10;stroke-dasharray:none;stroke-opacity:1" />
  <path
     d="M 217.761,195.706 L 359.489,195.706"
     id="path2624"
     style="fill:none;stroke:#000000;stroke-width:0.59;stroke-linecap:butt;stroke-linejoin:miter;stroke-miterlimit:10;stroke-dasharray:none;stroke-opacity:1" />
  <path
     d="M 350.041,197.28 L 357.915,195.706 L 350.041,194.131 L 351.615,195.706 L 350.041,197.28"
     id="path2626"
     style="fill:#000000;fill-opacity:1;fill-rule:evenodd;stroke:none" />
  <path
     d="M 350.041,197.28 L 357.915,195.706 L 350.041,194.131 L 351.615,195.706 L 350.041,197.28 z"
     id="path2628"
     style="fill:none;stroke:#000000;stroke-width:0.59;stroke-linecap:butt;stroke-linejoin:miter;stroke-miterlimit:10;stroke-dasharray:none;stroke-opacity:1" />
  <path
     d="M 228.391,232.555 L 228.391,144.683"
     id="path2638"
     style="fill:none;stroke:#000000;stroke-width:0.59;stroke-linecap:butt;stroke-linejoin:miter;stroke-miterlimit:10;stroke-dasharray:none;stroke-opacity:1" />
  <path
     d="M 229.966,154.132 L 228.391,146.258 L 226.816,154.132 L 228.391,152.557 L 229.966,154.132"
     id="path2640"
     style="fill:#000000;fill-opacity:1;fill-rule:evenodd;stroke:none" />
  <path
     d="M 229.966,154.132 L 228.391,146.258 L 226.816,154.132 L 228.391,152.557 L 229.966,154.132 z M 228.391,199.248 L 228.391,192.162"
     id="path2642"
     style="fill:none;stroke:#000000;stroke-width:0.59;stroke-linecap:butt;stroke-linejoin:miter;stroke-miterlimit:10;stroke-dasharray:none;stroke-opacity:1" />
  <path
     d="M 230.911,195.706 C 230.911,197.097 229.782,198.225 228.391,198.225 C 227,198.225 225.871,197.097 225.871,195.706 C 225.871,194.313 227,193.186 228.391,193.186 C 229.782,193.186 230.911,194.313 230.911,195.706 M 239.73,181.532 C 239.73,182.925 238.601,184.052 237.21,184.052 C 235.819,184.052 234.69,182.925 234.69,181.532 C 234.69,180.141 235.819,179.014 237.21,179.014 C 238.601,179.014 239.73,180.141 239.73,181.532 M 248.626,167.36 C 248.626,168.751 247.499,169.88 246.107,169.88 C 244.716,169.88 243.587,168.751 243.587,167.36 C 243.587,165.968 244.716,164.841 246.107,164.841 C 247.499,164.841 248.626,165.968 248.626,167.36 M 257.524,167.36 C 257.524,168.751 256.396,169.88 255.005,169.88 C 253.612,169.88 252.485,168.751 252.485,167.36 C 252.485,165.968 253.612,164.841 255.005,164.841 C 256.396,164.841 257.524,165.968 257.524,167.36 M 266.342,167.36 C 266.342,168.751 265.215,169.88 263.822,169.88 C 262.431,169.88 261.304,168.751 261.304,167.36 C 261.304,165.968 262.431,164.841 263.822,164.841 C 265.215,164.841 266.342,165.968 266.342,167.36 M 275.161,181.532 C 275.161,182.925 274.034,184.052 272.641,184.052 C 271.25,184.052 270.122,182.925 270.122,181.532 C 270.122,180.141 271.25,179.014 272.641,179.014 C 274.034,179.014 275.161,180.141 275.161,181.532 M 284.059,195.706 C 284.059,197.097 282.93,198.225 281.539,198.225 C 280.147,198.225 279.02,197.097 279.02,195.706 C 279.02,194.313 280.147,193.186 281.539,193.186 C 282.93,193.186 284.059,194.313 284.059,195.706 M 292.956,209.879 C 292.956,211.27 291.827,212.397 290.436,212.397 C 289.045,212.397 287.916,211.27 287.916,209.879 C 287.916,208.487 289.045,207.358 290.436,207.358 C 291.827,207.358 292.956,208.487 292.956,209.879 M 301.775,224.051 C 301.775,225.442 300.646,226.571 299.255,226.571 C 297.864,226.571 296.735,225.442 296.735,224.051 C 296.735,222.66 297.864,221.531 299.255,221.531 C 300.646,221.531 301.775,222.66 301.775,224.051 M 310.594,224.051 C 310.594,225.442 309.465,226.571 308.074,226.571 C 306.682,226.571 305.554,225.442 305.554,224.051 C 305.554,222.66 306.682,221.531 308.074,221.531 C 309.465,221.531 310.594,222.66 310.594,224.051 M 319.49,224.051 C 319.49,225.442 318.362,226.571 316.971,226.571 C 315.579,226.571 314.451,225.442 314.451,224.051 C 314.451,222.66 315.579,221.531 316.971,221.531 C 318.362,221.531 319.49,222.66 319.49,224.051 M 328.387,209.879 C 328.387,211.27 327.26,212.397 325.869,212.397 C 324.476,212.397 323.349,211.27 323.349,209.879 C 323.349,208.487 324.476,207.358 325.869,207.358 C 327.26,207.358 328.387,208.487 328.387,209.879 M 337.206,209.879 C 337.206,211.27 336.079,212.397 334.686,212.397 C 333.295,212.397 332.167,211.27 332.167,209.879 C 332.167,208.487 333.295,207.358 334.686,207.358 C 336.079,207.358 337.206,208.487 337.206,209.879"
     id="path2644"
     style="fill:#ff0000;fill-opacity:1;fill-rule:evenodd;stroke:none" />
  <path
     d="M 228.391,195.706 L 228.391,195.706 z M 237.21,195.706 L 237.21,181.532 M 246.107,195.706 L 246.107,167.36 M 255.005,195.706 L 255.005,167.36 M 263.822,195.706 L 263.822,167.36 M 272.641,195.706 L 272.641,181.532 M 281.539,195.706 L 281.539,195.706 z M 290.436,195.706 L 290.436,209.879 M 299.255,195.706 L 299.255,224.051 M 308.074,195.706 L 308.074,224.051 M 316.971,195.706 L 316.971,224.051 M 325.869,195.706 L 325.869,209.879 M 334.686,195.706 L 334.686,209.879"
     id="path2670"
     style="fill:none;stroke:#ff0000;stroke-width:1.18125;stroke-linecap:butt;stroke-linejoin:miter;stroke-miterlimit:10;stroke-dasharray:none;stroke-opacity:1" />
  <path
     d="M 224.847,167.36 L 231.935,167.36 M 224.847,181.532 L 231.935,181.532 M 224.847,209.879 L 231.935,209.879 M 224.847,224.051 L 231.935,224.051"
     id="path2672"
     style="fill:none;stroke:#000000;stroke-width:0.59;stroke-linecap:butt;stroke-linejoin:miter;stroke-miterlimit:10;stroke-dasharray:none;stroke-opacity:1" />
  <path
     d="M 202.015,20.796 L 202.015,0.249 M 375.38,240.6 L 375.38,136.427 M 0.497,251.06 L 0.497,230.512 M 23.65,251.06 L 23.65,230.512 M 202.015,251.06 L 202.015,230.512 M 23.65,240.6 L 23.65,136.427 M 23.899,0.498 L 375.629,0.498 M 23.65,20.796 L 23.65,0.249 M 375.38,20.796 L 375.38,0.249 M 0.249,21.046 L 375.63,21.046 M 0.497,125.467 L 0.497,21.295 M 23.65,125.467 L 23.65,21.295 M 202.015,125.467 L 202.015,21.295 M 375.38,125.467 L 375.38,21.295 M 0.497,135.929 L 0.497,115.381 M 23.65,135.929 L 23.65,115.381 M 202.015,135.929 L 202.015,115.381 M 375.38,135.929 L 375.38,115.381 M 0.249,136.177 L 375.63,136.177 M 0.497,240.6 L 0.497,136.427 M 202.015,240.6 L 202.015,136.427 M 375.38,251.06 L 375.38,230.512 M 0.249,251.31 L 375.63,251.31"
     id="path2466"
     style="fill:none;stroke:#000000;stroke-width:0.4975;stroke-linecap:butt;stroke-linejoin:miter;stroke-miterlimit:10;stroke-dasharray:none;stroke-opacity:1" />
  <text
     transform="matrix(0,-1,1,0,0,0)"
     xml:space="preserve"
     style="font-size:10px;font-style:normal;font-weight:normal;fill:#000000;fill-opacity:1;stroke:none;stroke-width:1px;stroke-linecap:butt;stroke-linejoin:miter;stroke-opacity:1;font-family:Bitstream Vera Sans"><tspan
       x="-118.90997"
       y="15.392">wertkontinuierlich</tspan>
    <tspan
       x="-219.87593"
       y="15.392">wertdiskret</tspan>
  </text>
  <text
     xml:space="preserve"
     style="font-size:10px;font-style:normal;font-weight:normal;fill:#000000;fill-opacity:1;stroke:none;stroke-width:1px;stroke-linecap:butt;stroke-linejoin:miter;stroke-opacity:1;font-family:Bitstream Vera Sans"><tspan
       x="233.27832"
       y="245.65846">digitales Signal (Theorie)</tspan>
    <tspan
       x="33.80051"
       y="245.65846"
       id="tspan3847">digitales Signal (Schaltungstechnik)</tspan>
    <tspan
       x="77.338104"
       y="125.65847"
       id="tspan3851">analoges Signal</tspan>
    <tspan
       x="76.031952"
       y="14.20641"
       id="tspan3855">zeitkontinuierlich</tspan>
    <tspan
       x="266.04199"
       y="14.20641"
       id="tspan3859">zeitdiskret</tspan>
    <tspan
       x="183.40411"
       y="94.290489"
       id="tspan3871">t</tspan>
    <tspan
       x="183.40411"
       y="210.29048"
       id="tspan3875">t</tspan>
    <tspan
       x="357.40414"
       y="210.29048"
       id="tspan3879">n</tspan>
    <tspan
       x="357.40414"
       y="94.290489"
       id="tspan3883">n</tspan>
  </text>
</svg>
